Coordinates
version=1
nRows=26
nColumns=24
inDegrees=yes

Units are S.I. units (second, meters, Newtons, ...)
Angles are in degrees.

endheader
time	pelvis_tilt	pelvis_list	pelvis_rotation	pelvis_tx	pelvis_ty	pelvis_tz	hip_flexion_r	hip_adduction_r	hip_rotation_r	knee_angle_r	ankle_angle_r	subtalar_angle_r	mtp_angle_r	hip_flexion_l	hip_adduction_l	hip_rotation_l	knee_angle_l	ankle_angle_l	subtalar_angle_l	mtp_angle_l	lumbar_extension	lumbar_bending	lumbar_rotation
      0.94650000	      3.75379091	      1.65299697	     -3.21372353	     -0.15263625	      1.01385185	      0.28423874	    -16.51375411	      0.42172417	      1.85819547	     -8.26965260	     12.23818793	    -12.36462122	      5.78001771	     15.65157623	      0.74394963	     -8.34665924	     -0.88191781	      1.29648142	     -6.11500927	      2.03459133	     -8.22639537	     -2.02012523	     12.16345327
      0.95066667	      3.81950977	      1.67631247	     -3.22045382	     -0.14689889	      1.01340757	      0.28374357	    -16.66198843	      0.33852227	      1.77485472	     -8.82899578	     12.36783225	    -12.12577037	      5.75550328	     15.46864822	      0.84702828	     -8.16547983	     -0.66754260	      1.29638438	     -6.17822229	      2.06919827	     -8.27541494	     -2.07052779	     12.21796566
      0.95483333	      3.84502684	      1.70841223	     -3.21799925	     -0.14112778	      1.01294749	      0.28322173	    -16.74656426	      0.24918587	      1.69212374	     -9.43046389	     12.47900109	    -11.92467675	      5.73880453	     15.34326615	      0.95796556	     -7.94311915	     -0.56532241	      1.28093305	     -6.27105902	      2.11730071	     -8.26944175	     -2.10688456	     12.25772419
      0.95900000	      3.86534080	      1.74321292	     -3.21633940	     -0.13532244	      1.01251764	      0.28270232	    -16.80027884	      0.15669051	      1.60435514	    -10.08347054	     12.56243854	    -11.72776386	      5.73675554	     15.22817101	      1.07018028	     -7.70359906	     -0.55305153	      1.24347761	     -6.37612765	      2.18260611	     -8.24225982	     -2.15469514	     12.28719971
      0.96316667	      3.91908825	      1.79560983	     -3.21595539	     -0.12951023	      1.01216552	      0.28218734	    -16.86798948	      0.04406084	      1.52290726	    -10.78019408	     12.62660319	    -11.55293130	      5.75393798	     15.08156329	      1.20196089	     -7.45204677	     -0.62158974	      1.18853521	     -6.47404940	      2.25611290	     -8.26462792	     -2.22871935	     12.31105892
      0.96733333	      3.95388232	      1.85937082	     -3.20543854	     -0.12368352	      1.01181789	      0.28166588	    -16.89203347	     -0.07458157	      1.44665117	    -11.52405815	     12.68247229	    -11.41228565	      5.78629897	     14.97809733	      1.34334112	     -7.18635531	     -0.80208138	      1.11284241	     -6.57703134	      2.32538973	     -8.26240518	     -2.33475157	     12.32890422
      0.97150000	      3.96805875	      1.92231584	     -3.20986349	     -0.11780751	      1.01148244	      0.28112613	    -16.85282580	     -0.20284909	      1.34086807	    -12.34805264	     12.69570043	    -11.17898960	      5.85163119	     14.87572208	      1.48563485	     -6.87851625	     -1.00290291	      0.98701835	     -6.74401098	      2.42458472	     -8.22465655	     -2.40592915	     12.34751767
      0.97566667	      3.99718400	      1.99812342	     -3.20792285	     -0.11192467	      1.01120109	      0.28058529	    -16.80734571	     -0.34216389	      1.23993276	    -13.21480156	     12.68615881	    -10.98390215	      5.94894189	     14.77010135	      1.64138920	     -6.56622552	     -1.28085017	      0.83430916	     -6.91687186	      2.54256279	     -8.20751594	     -2.50888168	     12.35538045
      0.97983333	      4.03428601	      2.08014801	     -3.20538738	     -0.10601878	      1.01095211	      0.28003670	    -16.74147197	     -0.48922412	      1.13176828	    -14.13742018	     12.64720761	    -10.79663180	      6.07539530	     14.65884049	      1.80492249	     -6.24885147	     -1.61157062	      0.66082979	     -7.09342608	      2.67065849	     -8.19441045	     -2.62427539	     12.35389970
      0.98400000	      4.06853994	      2.17141493	     -3.20614502	     -0.10008951	      1.01073691	      0.27948395	    -16.63934910	     -0.64833151	      1.01988336	    -15.12304027	     12.57369889	    -10.60633810	      6.23598316	     14.55097325	      1.97743197	     -5.93047894	     -1.98266449	      0.45524444	     -7.28659968	      2.81003425	     -8.17473541	     -2.74946698	     12.35442637
      0.98816667	      4.08930065	      2.26460322	     -3.20455653	     -0.09413858	      1.01052722	      0.27891964	    -16.49124613	     -0.80897770	      0.90377768	    -16.16730165	     12.45734478	    -10.43094555	      6.42046141	     14.46219810	      2.15139575	     -5.61391802	     -2.39535067	      0.22934169	     -7.48430968	      2.95021276	     -8.13483869	     -2.87992412	     12.34389993
      0.99233333	      4.12763402	      2.35162604	     -3.18974136	     -0.08819004	      1.01036871	      0.27833364	    -16.34173300	     -0.95957969	      0.79255457	    -17.23701535	     12.19406706	    -10.39564741	     10.61817106	     14.35988103	      2.32320790	     -5.26894045	     -2.83869957	     -0.08148090	     -7.80680165	      5.81721686	     -8.12151122	     -2.99967571	     12.31759535
      0.99650000	      4.19733873	      2.46673208	     -3.20139341	     -0.08220551	      1.01027270	      0.27776907	    -16.17559450	     -1.15685225	      0.64724223	    -18.40871824	     12.00832011	    -10.17227664	     10.65808442	     14.22036465	      2.51568768	     -5.04617054	     -3.30390321	     -0.32014021	     -7.89563657	      5.83672632	     -8.13597463	     -3.16173924	     12.30164731
      1.00066667	      4.20799963	      2.56641615	     -3.19790154	     -0.07622095	      1.01012482	      0.27717275	    -15.90849228	     -1.33048251	      0.50825567	    -19.64624698	     11.75625952	    -10.00423064	     10.73652289	     14.15475274	      2.69222269	     -4.77631057	     -3.80705214	     -0.58338652	     -8.08851807	      5.86358980	     -8.07972728	     -3.29475111	     12.27283027
      1.00483333	      4.24954961	      2.67611748	     -3.19564348	     -0.07023748	      1.01003711	      0.27656196	    -15.63947571	     -1.52127188	      0.35266771	    -20.94289576	     11.46218891	     -9.82321664	     10.86339735	     14.05100223	      2.88112133	     -4.51782041	     -4.31053180	     -0.86782206	     -8.30169883	      5.89859116	     -8.05970344	     -3.44366114	     12.23064732
      1.00900000	      4.28474531	      2.77765727	     -3.18430245	     -0.06427573	      1.00995691	      0.27593871	    -15.32894533	     -1.70267235	      0.19288302	    -22.29360503	     11.11352781	     -9.65607143	     11.06991745	     13.96762604	      3.05931123	     -4.27288366	     -4.85090795	     -1.15675901	     -8.54068725	      5.94657611	     -8.04446607	     -3.58539200	     12.18293323
      1.01316667	      4.32855308	      2.90378081	     -3.19079551	     -0.05826764	      1.00991947	      0.27533079	    -14.98820351	     -1.92009151	      0.02908564	    -23.71014029	     10.69550001	     -9.52732955	     11.27696767	     13.85288323	      3.25762757	     -4.08125105	     -5.35660490	     -1.42194775	     -8.70453190	      5.98759537	     -8.01201362	     -3.75174683	     12.12407056
      1.01733333	      4.36184213	      3.02005916	     -3.18491316	     -0.05228949	      1.00988029	      0.27470046	    -14.60061476	     -2.12696285	     -0.14584238	    -25.18039286	     10.23135664	     -9.39877574	     11.52424957	     13.76475907	      3.44368167	     -3.90470211	     -5.89954695	     -1.67042475	     -8.88067774	      6.02961571	     -7.98280331	     -3.90852248	     12.05669289
      1.02150000	      4.44437125	      3.14920901	     -3.17813524	     -0.04634625	      1.00992255	      0.27406237	    -14.23767809	     -2.35455942	     -0.32737545	    -26.67977498	      9.65244650	     -9.39558133	     17.10919392	     13.62245628	      3.64645455	     -3.72776383	     -6.44169591	     -1.91129092	     -9.11043546	      6.84227529	     -8.02333779	     -4.09516074	     12.00063848
      1.02566667	      4.50923910	      3.28351010	     -3.17756525	     -0.04037283	      1.00997958	      0.27343647	    -13.82901101	     -2.58896466	     -0.49179126	    -28.21841203	      9.01377280	     -9.32337673	     17.12976402	     13.49859346	      3.84205863	     -3.64677494	     -6.99194629	     -2.09391596	     -9.16597194	      6.84349403	     -8.03077859	     -4.28603738	     11.91932139
      1.02983333	      4.52306421	      3.40562030	     -3.16645800	     -0.03444780	      1.00995448	      0.27277055	    -13.30932364	     -2.81902033	     -0.69672262	    -29.85521310	      8.44823300	     -9.20792429	     17.19762339	     13.43799659	      4.02349061	     -3.55455528	     -7.55902189	     -2.25873044	     -9.29285820	      6.84311283	     -7.97814409	     -4.42788626	     11.80863884
      1.03400000	      4.56160635	      3.53976651	     -3.15757047	     -0.02854619	      1.00998119	      0.27211227	    -12.79357738	     -3.06342578	     -0.88229399	    -31.51321548	      7.80022229	     -9.15828430	     17.29005065	     13.34418658	      4.21661263	     -3.47351675	     -8.11515732	     -2.37916663	     -9.39696662	      6.83949431	     -7.96216981	     -4.60530426	     11.70052218
      1.03816667	      4.61866355	      3.68578523	     -3.15059984	     -0.02266920	      1.01005190	      0.27146426	    -12.27174850	     -3.32535593	     -1.06870288	    -33.19910191	      7.11932154	     -9.13192786	     17.39727460	     13.22388233	      4.42078696	     -3.41359415	     -8.65998703	     -2.46025747	     -9.48194593	      6.83180048	     -7.96933359	     -4.79936580	     11.58488464
      1.04233333	      4.75987605	      3.82167779	     -3.13477663	     -0.01684993	      1.01026148	      0.27081374	    -11.83522193	     -3.57738275	     -1.25331326	    -34.86650901	      6.35647146	     -9.18869766	     17.42622418	     13.01653955	      4.61747524	     -3.37449315	     -9.21801420	     -2.46369908	     -9.54825075	      6.82923197	     -8.09775442	     -4.99024165	     11.51951592
      1.04650000	      4.70022409	      3.98231462	     -3.13164457	     -0.01101993	      1.01019554	      0.27015790	    -11.11383001	     -3.86154308	     -1.42036051	    -36.65096835	      5.69944826	     -9.17459156	     17.55314415	     13.01068028	      4.82822011	     -3.32186017	     -9.73934025	     -2.48928921	     -9.61922026	      6.80980515	     -7.95736346	     -5.19374456	     11.32826117
      1.05066667	      4.75907914	      4.14096206	     -3.12439676	     -0.00524692	      1.01031766	      0.26951696	    -10.52329994	     -4.14514851	     -1.58601184	    -38.39659557	      4.97631911	     -9.26321412	     17.66421203	     12.86773085	      5.04294904	     -3.28486442	    -10.24555387	     -2.44037444	     -9.66955480	      6.78539005	     -7.97566197	     -5.40824119	     11.18019532
